<svg id="Capa_1" data-name="Capa 1" xmlns="http://www.w3.org/2000/svg" viewBox="0 0 126 131"><defs><style>.cls-1{fill:#76ca45;}.cls-2{fill:#ee3b33;}.cls-3{fill:#fff;}</style></defs><title>logo_id_cat_mobil</title><polygon class="cls-1" points="125 0.97 64 0.97 64 41.97 74 41.97 74 52.97 86.69 41.97 125 41.97 125 0.97"/><polygon class="cls-2" points="29.98 61.52 28.51 66.2 31.38 66.2 30.02 61.52 29.98 61.52"/><path class="cls-2" d="M1,1V87H55V1ZM8.07,16.06h9.46V22.7H8.07Zm0,9.32h9.46V50.16H8.07ZM14.62,72C9.72,72,6.94,68.51,6.94,64c0-4.78,3-7.94,7.68-7.94,4.17,0,6.46,2.21,6.86,6H16.94a2.44,2.44,0,0,0-2.44-2.23c-2.19,0-2.89,2.12-2.89,4.16s.7,4.16,2.89,4.16c1.57,0,2.18-1.1,2.46-2.52h4.59C21.55,68.72,19.06,72,14.62,72ZM32.38,24.76a8.08,8.08,0,0,1,6.78,3.34h.1v-12h9.45v34.1H39.59V47.44H39.5c-1.2,1.58-2.63,3.34-7.26,3.34-7,0-10.42-6.92-10.42-13.13C21.82,31.82,24.07,24.76,32.38,24.76ZM33,71.61l-.64-2.16H27.49l-.68,2.16H22.12L27.7,56.45h4.57l5.52,15.16Zm16.9-11.27H45.6V71.61H40.93V60.34H36.68V56.45H49.85Z"/><path class="cls-2" d="M35.44,43.91c3.39,0,4.15-3.2,4.15-6.16s-.76-6.12-4.15-6.12-4.16,3.2-4.16,6.12S32,43.91,35.44,43.91Z"/><path class="cls-3" d="M72.76,17V18.5h0a3.8,3.8,0,0,1,3.38-1.78,3.76,3.76,0,0,1,1.75.4A2.23,2.23,0,0,1,79,18.5a3.6,3.6,0,0,1,1.39-1.32,3.89,3.89,0,0,1,1.89-.46,5.64,5.64,0,0,1,1.42.17,2.93,2.93,0,0,1,1.09.54,2.42,2.42,0,0,1,.71.94,3.37,3.37,0,0,1,.25,1.38v7.66H84.07V20.56a4.34,4.34,0,0,0-.08-.91,1.81,1.81,0,0,0-.3-.74,1.46,1.46,0,0,0-.62-.49,2.29,2.29,0,0,0-1-.19,2.75,2.75,0,0,0-2,.73,2.64,2.64,0,0,0-.72,1.94v6.51H77.61V20.56a4.45,4.45,0,0,0-.09-.93,2.14,2.14,0,0,0-.31-.74,1.43,1.43,0,0,0-.6-.48,2.22,2.22,0,0,0-1-.18,2.55,2.55,0,0,0-1.28.31,2.84,2.84,0,0,0-.87.72,3.1,3.1,0,0,0-.49.88,2.58,2.58,0,0,0-.15.76v6.51H71.15V17Z"/><path class="cls-3" d="M88.13,20a5,5,0,0,1,1-1.73,4.61,4.61,0,0,1,1.6-1.17,5.89,5.89,0,0,1,4.37,0,4.57,4.57,0,0,1,1.59,1.17,5,5,0,0,1,1,1.73A7.17,7.17,0,0,1,98,22.19a7,7,0,0,1-.32,2.14,5,5,0,0,1-1,1.73,4.4,4.4,0,0,1-1.59,1.15,5.89,5.89,0,0,1-4.37,0,4.44,4.44,0,0,1-1.6-1.15,5,5,0,0,1-1-1.73,7,7,0,0,1-.32-2.14A7.17,7.17,0,0,1,88.13,20Zm1.75,3.84a3.51,3.51,0,0,0,.7,1.23,2.89,2.89,0,0,0,1,.76,3,3,0,0,0,1.26.26,3,3,0,0,0,1.26-.26,2.89,2.89,0,0,0,1-.76,3.51,3.51,0,0,0,.7-1.23,5.8,5.8,0,0,0,0-3.37,3.69,3.69,0,0,0-.7-1.25,2.89,2.89,0,0,0-1-.76,3,3,0,0,0-1.26-.27,3,3,0,0,0-1.26.27,2.89,2.89,0,0,0-1,.76,3.69,3.69,0,0,0-.7,1.25,5.8,5.8,0,0,0,0,3.37Zm0-12,2.83,3.27H94L92,11.85Z"/><path class="cls-3" d="M101.75,13v5.4h0a2.62,2.62,0,0,1,1.33-1.27,5,5,0,0,1,2-.39,4.79,4.79,0,0,1,2.11.44,4.34,4.34,0,0,1,1.5,1.21,5.52,5.52,0,0,1,.9,1.74,7.2,7.2,0,0,1,.3,2.1,7.56,7.56,0,0,1-.29,2.1,5.16,5.16,0,0,1-.89,1.73,4.21,4.21,0,0,1-1.5,1.16,4.73,4.73,0,0,1-2.09.43,5.73,5.73,0,0,1-.86-.08,4.75,4.75,0,0,1-.94-.27,3.41,3.41,0,0,1-.87-.49,2.76,2.76,0,0,1-.7-.78h0v1.4H100V13Zm6.17,7.69a3.65,3.65,0,0,0-.59-1.24,2.74,2.74,0,0,0-1-.87,3.31,3.31,0,0,0-2.92,0,3.05,3.05,0,0,0-1,.9,3.77,3.77,0,0,0-.55,1.26,5.77,5.77,0,0,0-.17,1.43,6.08,6.08,0,0,0,.18,1.49,3.63,3.63,0,0,0,.57,1.26,3,3,0,0,0,1,.88,3.18,3.18,0,0,0,1.51.33,2.89,2.89,0,0,0,1.48-.34,2.7,2.7,0,0,0,1-.91,3.9,3.9,0,0,0,.53-1.29,6.82,6.82,0,0,0,.16-1.5A5.23,5.23,0,0,0,107.92,20.67Z"/><path class="cls-3" d="M112.05,15.08V13h1.72v2.1ZM113.77,17V27.41h-1.72V17Z"/><path class="cls-3" d="M118.25,13V27.41h-1.72V13Z"/><path d="M1.42,98.7V97.14H2.69V98.7Zm1.27,1.39v7.76H1.42v-7.76Z"/><path d="M10.33,107.85v-1h0a1.88,1.88,0,0,1-1,.93,3.8,3.8,0,0,1-1.49.28,3.45,3.45,0,0,1-1.56-.33,3.12,3.12,0,0,1-1.11-.88,3.77,3.77,0,0,1-.67-1.29A5.3,5.3,0,0,1,4.25,104a5.65,5.65,0,0,1,.22-1.56,3.94,3.94,0,0,1,.66-1.29,3.41,3.41,0,0,1,1.11-.87,3.61,3.61,0,0,1,1.55-.32,3.83,3.83,0,0,1,.65.06,3.59,3.59,0,0,1,.69.2,2.84,2.84,0,0,1,.65.38,1.94,1.94,0,0,1,.52.58h0v-4H11.6v10.71Zm-4.58-2.76a2.84,2.84,0,0,0,.43.93,2.21,2.21,0,0,0,.75.64A2.28,2.28,0,0,0,8,106.9a2.21,2.21,0,0,0,1.1-.25,2.24,2.24,0,0,0,.73-.67,3,3,0,0,0,.42-.94,4.72,4.72,0,0,0,.12-1.06,4.56,4.56,0,0,0-.13-1.11,2.65,2.65,0,0,0-.43-.93,2.22,2.22,0,0,0-.76-.66A2.41,2.41,0,0,0,7.93,101a2.21,2.21,0,0,0-1.1.25,2,2,0,0,0-.72.68,2.94,2.94,0,0,0-.39,1A5.1,5.1,0,0,0,5.6,104,3.7,3.7,0,0,0,5.75,105.09Z"/><path d="M19.06,107.35a3.52,3.52,0,0,1-2.19.66,4,4,0,0,1-1.61-.3,3.15,3.15,0,0,1-1.15-.84,3.65,3.65,0,0,1-.7-1.29,6.39,6.39,0,0,1-.26-1.63,4.67,4.67,0,0,1,.27-1.62,3.82,3.82,0,0,1,.76-1.28,3.42,3.42,0,0,1,1.15-.84,3.53,3.53,0,0,1,1.46-.3,3.14,3.14,0,0,1,1.72.43,3.37,3.37,0,0,1,1.1,1.09,4.52,4.52,0,0,1,.57,1.44,6.38,6.38,0,0,1,.12,1.48H14.5a3.11,3.11,0,0,0,.12,1,2.18,2.18,0,0,0,.43.81,2.22,2.22,0,0,0,.77.56,2.62,2.62,0,0,0,1.09.21,2.2,2.2,0,0,0,1.33-.37,1.79,1.79,0,0,0,.68-1.14h1.26A3.08,3.08,0,0,1,19.06,107.35Zm-.31-5a2.24,2.24,0,0,0-.46-.7,2.31,2.31,0,0,0-.69-.46,2.39,2.39,0,0,0-1.77,0,2,2,0,0,0-.69.47,2.21,2.21,0,0,0-.45.7,2.64,2.64,0,0,0-.19.85H19A2.51,2.51,0,0,0,18.75,102.37Z"/><path d="M22.82,100.09v1.23h0a2.68,2.68,0,0,1,2.52-1.41,3.39,3.39,0,0,1,1.28.21,2.09,2.09,0,0,1,.82.59,2.21,2.21,0,0,1,.45.89,5.08,5.08,0,0,1,.12,1.15v5.1H26.77V102.6a1.54,1.54,0,0,0-.42-1.14,1.57,1.57,0,0,0-1.16-.42,2.6,2.6,0,0,0-1,.18,1.93,1.93,0,0,0-.71.51,2.23,2.23,0,0,0-.43.77,3.29,3.29,0,0,0-.14,1v4.38H21.62v-7.76Z"/><path d="M33.28,100.09v1.13H31.73V106a1.63,1.63,0,0,0,0,.36.39.39,0,0,0,.14.21.7.7,0,0,0,.3.1l.48,0h.59v1.13h-1a4.89,4.89,0,0,1-.84-.07,1.25,1.25,0,0,1-.57-.25,1,1,0,0,1-.33-.51,3,3,0,0,1-.1-.87v-4.93H29.14v-1.13h1.32V97.77h1.27v2.32Z"/><path d="M34.76,98.7V97.14H36V98.7ZM36,100.09v7.76H34.76v-7.76Z"/><path d="M41.33,100.09v1.13H39.79V106a1.19,1.19,0,0,0,0,.36.34.34,0,0,0,.14.21.7.7,0,0,0,.29.1l.49,0h.58v1.13h-1a5.11,5.11,0,0,1-.85-.07,1.36,1.36,0,0,1-.57-.25,1.09,1.09,0,0,1-.32-.51,2.93,2.93,0,0,1-.11-.87v-4.93H37.19v-1.13h1.32V97.77h1.28v2.32Z"/><path d="M49.61,107.82a1.79,1.79,0,0,1-.91.19,1.08,1.08,0,0,1-.79-.28,1.2,1.2,0,0,1-.29-.9,3,3,0,0,1-1.22.9,4,4,0,0,1-1.51.28,4.09,4.09,0,0,1-1-.12,2.37,2.37,0,0,1-.82-.37,1.78,1.78,0,0,1-.54-.67,2.2,2.2,0,0,1-.21-1,2.28,2.28,0,0,1,.23-1.08,2,2,0,0,1,.59-.68,3,3,0,0,1,.84-.4c.32-.09.64-.16,1-.22a9.84,9.84,0,0,1,1-.16,7.36,7.36,0,0,0,.83-.15,1.39,1.39,0,0,0,.57-.29.67.67,0,0,0,.21-.54,1.25,1.25,0,0,0-.16-.68,1.07,1.07,0,0,0-.4-.39,1.67,1.67,0,0,0-.56-.18,4.17,4.17,0,0,0-.61,0,2.75,2.75,0,0,0-1.35.3,1.32,1.32,0,0,0-.58,1.17H42.62a2.78,2.78,0,0,1,.3-1.22,2.22,2.22,0,0,1,.72-.8,3,3,0,0,1,1-.44,5.48,5.48,0,0,1,1.24-.14,7.28,7.28,0,0,1,1,.08,2.8,2.8,0,0,1,.94.3,1.9,1.9,0,0,1,.67.65,2.11,2.11,0,0,1,.26,1.1v4a2.73,2.73,0,0,0,0,.66c0,.14.15.21.35.21a1.55,1.55,0,0,0,.39-.06Zm-2.07-4a1.52,1.52,0,0,1-.63.26c-.26.06-.53.1-.81.14s-.58.07-.87.12a3,3,0,0,0-.78.21,1.41,1.41,0,0,0-.56.43,1.2,1.2,0,0,0-.22.75,1.06,1.06,0,0,0,.13.53,1.11,1.11,0,0,0,.33.35,1.42,1.42,0,0,0,.47.2,2.62,2.62,0,0,0,.57.06,3.14,3.14,0,0,0,1.08-.17,2.31,2.31,0,0,0,.74-.44,1.68,1.68,0,0,0,.42-.56,1.46,1.46,0,0,0,.13-.58Z"/><path d="M54.11,100.09v1.13H52.57V106a1.73,1.73,0,0,0,0,.36.41.41,0,0,0,.15.21.66.66,0,0,0,.29.1l.49,0h.58v1.13h-1a5,5,0,0,1-.85-.07,1.25,1.25,0,0,1-.57-.25,1,1,0,0,1-.32-.51,2.93,2.93,0,0,1-.11-.87v-4.93H50v-1.13h1.32V97.77h1.28v2.32Z"/><path d="M9.2,125.85v-1.4h0a2.54,2.54,0,0,1-1.32,1.24,5.1,5.1,0,0,1-2,.38,4.73,4.73,0,0,1-2.09-.44,4.52,4.52,0,0,1-1.48-1.18,5.3,5.3,0,0,1-.89-1.72,7.12,7.12,0,0,1-.3-2.08,7.36,7.36,0,0,1,.29-2.08,5,5,0,0,1,.88-1.71,4.23,4.23,0,0,1,1.48-1.16,4.7,4.7,0,0,1,2.07-.43,4.37,4.37,0,0,1,.86.08,3.87,3.87,0,0,1,.92.27,3.44,3.44,0,0,1,.87.5,2.44,2.44,0,0,1,.69.77h0v-5.32h1.7v14.28Zm-6.11-3.67a3.88,3.88,0,0,0,.58,1.23,3,3,0,0,0,1,.86,3.11,3.11,0,0,0,1.43.32,3,3,0,0,0,1.46-.34,3,3,0,0,0,1-.89,3.61,3.61,0,0,0,.55-1.25,5.69,5.69,0,0,0,.17-1.42,5.92,5.92,0,0,0-.18-1.47A3.58,3.58,0,0,0,8.51,118a2.85,2.85,0,0,0-1-.87,3.14,3.14,0,0,0-1.5-.33,2.89,2.89,0,0,0-1.46.34,2.59,2.59,0,0,0-1,.9,4,4,0,0,0-.52,1.28,7.21,7.21,0,0,0-.16,1.48A5.57,5.57,0,0,0,3.09,122.18Z"/><path d="M13.62,113.65v-2.08h1.7v2.08Zm1.7,1.86v10.34h-1.7V115.51Z"/><path d="M25.72,128.77A4.71,4.71,0,0,1,22.08,130a7.51,7.51,0,0,1-1.47-.16,4.63,4.63,0,0,1-1.36-.52,3.36,3.36,0,0,1-1-.94A2.77,2.77,0,0,1,17.8,127h1.7a1.33,1.33,0,0,0,.29.78,2.27,2.27,0,0,0,.66.52,3.41,3.41,0,0,0,.85.29,4.61,4.61,0,0,0,.88.09,3.18,3.18,0,0,0,1.42-.29,2.68,2.68,0,0,0,1-.8,3.15,3.15,0,0,0,.55-1.23,6.54,6.54,0,0,0,.17-1.58v-.68h0a2.82,2.82,0,0,1-1.33,1.41A4.11,4.11,0,0,1,22,126a4.58,4.58,0,0,1-2-.42,4.33,4.33,0,0,1-1.44-1.13,5.15,5.15,0,0,1-.87-1.66,7,7,0,0,1-.29-2,7.77,7.77,0,0,1,.24-1.89,5.13,5.13,0,0,1,.8-1.76,4.45,4.45,0,0,1,1.48-1.3,4.63,4.63,0,0,1,2.26-.51,3.74,3.74,0,0,1,1.8.43A2.9,2.9,0,0,1,25.26,117h0v-1.48h1.6V125A5.42,5.42,0,0,1,25.72,128.77Zm-2.17-4.65a2.79,2.79,0,0,0,.95-.92,4.12,4.12,0,0,0,.53-1.29,5.9,5.9,0,0,0,.17-1.44,5.46,5.46,0,0,0-.16-1.34,3.43,3.43,0,0,0-.51-1.19,2.48,2.48,0,0,0-.91-.85,2.61,2.61,0,0,0-1.36-.32,2.92,2.92,0,0,0-1.4.31,2.71,2.71,0,0,0-.95.83,3.66,3.66,0,0,0-.54,1.2,5.94,5.94,0,0,0-.17,1.42,7.47,7.47,0,0,0,.14,1.4,4.4,4.4,0,0,0,.48,1.27,2.83,2.83,0,0,0,.9.92,2.64,2.64,0,0,0,1.4.35A2.78,2.78,0,0,0,23.55,124.12Z"/><path d="M29.54,113.65v-2.08h1.7v2.08Zm1.7,1.86v10.34h-1.7V115.51Z"/><path d="M38.3,115.51V117H36.24v6.42a2,2,0,0,0,0,.48.56.56,0,0,0,.19.28,1,1,0,0,0,.39.13,5.79,5.79,0,0,0,.65,0h.78v1.5H37a6.15,6.15,0,0,1-1.13-.09,1.71,1.71,0,0,1-.76-.33,1.51,1.51,0,0,1-.43-.68,4.08,4.08,0,0,1-.14-1.16V117H32.78v-1.5h1.76v-3.1h1.7v3.1Z"/><path d="M49.34,125.81a2.43,2.43,0,0,1-1.22.26,1.49,1.49,0,0,1-1-.37,1.61,1.61,0,0,1-.39-1.21,4.05,4.05,0,0,1-1.63,1.21,5.52,5.52,0,0,1-2,.37,5.77,5.77,0,0,1-1.33-.16,3.31,3.31,0,0,1-1.09-.5,2.55,2.55,0,0,1-.73-.89,3.51,3.51,0,0,1,0-2.77,2.6,2.6,0,0,1,.79-.91,3.51,3.51,0,0,1,1.12-.53q.63-.18,1.29-.3a11.74,11.74,0,0,1,1.33-.21,9,9,0,0,0,1.11-.2,1.93,1.93,0,0,0,.76-.38.92.92,0,0,0,.28-.73,1.66,1.66,0,0,0-.21-.9,1.42,1.42,0,0,0-.54-.52,2.15,2.15,0,0,0-.74-.24,5.52,5.52,0,0,0-.81-.06,3.53,3.53,0,0,0-1.8.41,1.74,1.74,0,0,0-.78,1.55H40a3.72,3.72,0,0,1,.4-1.62,3,3,0,0,1,1-1.07,3.93,3.93,0,0,1,1.37-.59,7.32,7.32,0,0,1,1.65-.18,9.19,9.19,0,0,1,1.39.1,3.41,3.41,0,0,1,1.25.41,2.26,2.26,0,0,1,.9.86,2.77,2.77,0,0,1,.34,1.46v5.31a4.47,4.47,0,0,0,.07.88c0,.18.21.28.47.28a2.2,2.2,0,0,0,.52-.08Zm-2.76-5.3a2.17,2.17,0,0,1-.84.35c-.34.07-.71.13-1.09.17l-1.15.16a4.52,4.52,0,0,0-1,.29,1.92,1.92,0,0,0-.75.57,1.61,1.61,0,0,0-.29,1,1.41,1.41,0,0,0,.17.71,1.52,1.52,0,0,0,.44.47,2,2,0,0,0,.63.26,3.77,3.77,0,0,0,.76.08,4.1,4.1,0,0,0,1.44-.23,3,3,0,0,0,1-.58,2.11,2.11,0,0,0,.56-.76,1.87,1.87,0,0,0,.18-.76Z"/><path d="M52.72,111.57v14.28H51V111.57Z"/></svg>