<svg id="Capa_1" data-name="Capa 1" xmlns="http://www.w3.org/2000/svg" viewBox="0 0 45 64"><defs><style>.cls-1{fill:#fff;}</style></defs><title>logo_id_cat</title><path class="cls-1" d="M11.53,12.73H2.07V6.09h9.46ZM2.07,15.4h9.46V40.19H2.07Z"/><path class="cls-1" d="M42.71,40.19H33.59V37.47H33.5c-1.2,1.57-2.63,3.34-7.26,3.34-7,0-10.42-6.92-10.42-13.13,0-5.83,2.25-12.9,10.56-12.9a8.07,8.07,0,0,1,6.78,3.35h.1v-12h9.45ZM29.44,21.66c-3.4,0-4.16,3.2-4.16,6.11s.76,6.16,4.16,6.16,4.15-3.2,4.15-6.16S32.83,21.66,29.44,21.66Z"/><path class="cls-1" d="M10.94,52.13A2.43,2.43,0,0,0,8.5,49.9c-2.19,0-2.89,2.12-2.89,4.16s.7,4.16,2.89,4.16c1.57,0,2.18-1.1,2.46-2.53h4.59c0,3.06-2.49,6.31-6.93,6.31C3.72,62,.94,58.54.94,54.06c0-4.78,3-7.94,7.68-7.94,4.17,0,6.46,2.2,6.86,6Z"/><path class="cls-1" d="M21.7,46.48h4.57l5.52,15.16H27l-.64-2.17H21.49l-.68,2.17H16.12Zm3.68,9.74L24,51.55h0l-1.47,4.67Z"/><path class="cls-1" d="M34.93,50.36H30.68V46.48H43.85v3.88H39.6V61.64H34.93Z"/></svg>